<?xml version="1.0" encoding="UTF-8"?><svg id="Layer_1" xmlns="http://www.w3.org/2000/svg" viewBox="0 0 500 124.09"><defs><style>.cls-1{fill:#fff;}.cls-2{fill:#ff5f00;}</style></defs><g><rect class="cls-2" x="0" y="37.23" width="12.41" height="12.41"/><rect class="cls-2" x="12.41" y="24.82" width="12.41" height="12.41"/><rect class="cls-2" x="24.82" y="12.41" width="12.41" height="12.41"/><rect class="cls-2" x="37.23" width="12.41" height="12.41"/><rect class="cls-2" x="49.64" y="12.41" width="12.41" height="12.41"/><rect class="cls-2" x="62.05" y="24.82" width="12.41" height="12.41"/><rect class="cls-2" x="74.45" y="37.23" width="12.41" height="12.41"/><rect class="cls-2" y="111.68" width="12.41" height="12.41"/><rect class="cls-2" x="74.45" y="111.68" width="12.41" height="12.41"/><rect class="cls-2" x="49.64" y="111.68" width="12.41" height="12.41"/><rect class="cls-2" x="24.82" y="111.68" width="12.41" height="12.41"/><rect class="cls-2" x="62.05" y="99.27" width="12.41" height="12.41"/><rect class="cls-2" x="37.23" y="99.27" width="12.41" height="12.41"/><rect class="cls-2" x="12.41" y="99.27" width="12.41" height="12.41"/><rect class="cls-2" x="0" y="86.86" width="12.41" height="12.41"/><rect class="cls-2" x="74.45" y="86.86" width="12.41" height="12.41"/><rect class="cls-2" x="49.64" y="86.86" width="12.41" height="12.41"/><rect class="cls-2" x="24.82" y="86.86" width="12.41" height="12.41"/><rect class="cls-2" x="12.41" y="74.45" width="12.41" height="12.41"/><rect class="cls-2" x="62.05" y="74.45" width="12.41" height="12.41"/><rect class="cls-2" x="37.23" y="74.45" width="12.41" height="12.41"/><rect class="cls-2" y="62.05" width="12.41" height="12.41"/><rect class="cls-2" x="74.45" y="62.05" width="12.41" height="12.41"/><rect class="cls-2" x="49.64" y="62.05" width="12.41" height="12.41"/><rect class="cls-2" x="24.82" y="62.05" width="12.41" height="12.41"/><rect class="cls-2" x="62.05" y="49.64" width="12.41" height="12.41"/><rect class="cls-2" x="37.23" y="49.64" width="12.41" height="12.41"/><rect class="cls-2" x="12.41" y="49.64" width="12.41" height="12.41"/><rect class="cls-2" x="0" y="37.23" width="12.41" height="12.41"/><rect class="cls-2" x="74.45" y="37.23" width="12.41" height="12.41"/><rect class="cls-2" x="49.64" y="37.23" width="12.41" height="12.41"/><rect class="cls-2" x="24.82" y="37.23" width="12.41" height="12.41"/><rect class="cls-2" x="12.41" y="24.82" width="12.41" height="12.41"/><rect class="cls-2" x="62.05" y="24.82" width="12.41" height="12.41"/><rect class="cls-2" x="37.23" y="24.82" width="12.41" height="12.41"/><rect class="cls-2" x="49.64" y="12.41" width="12.41" height="12.41"/><rect class="cls-2" x="24.82" y="12.41" width="12.41" height="12.41"/></g><g><path class="cls-1" d="M126.13,67.48c0-17.29,10.86-29.91,28.22-29.91s28.22,12.62,28.22,29.91-10.94,29.99-28.22,29.99-28.22-12.7-28.22-29.99Zm46.88,0c0-11.58-5.47-21.71-18.65-21.71s-18.74,10.13-18.74,21.71,5.55,21.79,18.74,21.79,18.65-10.13,18.65-21.79Z"/><path class="cls-1" d="M211.83,54.45v7.96h-.16c-8.12-1.37-14.63,4.1-14.63,12.87v20.99h-8.44V55.18h8.44v7.72h.16c2.17-5.15,5.55-8.68,10.94-8.68,1.45,0,2.49,.08,3.7,.24Z"/><path class="cls-1" d="M251.47,38.78v57.49h-8.44v-4.74h-.16c-2.17,2.81-6.19,5.95-12.54,5.95-10.53,0-18.33-8.2-18.33-21.71s7.8-21.71,18.33-21.71c6.35,0,10.37,2.98,12.54,6.11h.16v-21.39h8.44Zm-8.52,36.99c0-9.17-4.26-14.8-11.18-14.8-7.4,0-11.34,6.75-11.34,14.8s3.94,14.79,11.34,14.79c6.92,0,11.18-5.71,11.18-14.79Z"/><path class="cls-1" d="M287.06,83.72h8.44c-2.09,7.8-8.2,13.75-18.74,13.75-12.78,0-20.58-8.84-20.58-21.71s7.8-21.71,20.18-21.71c13.27,0,19.78,9.25,19.78,23.88h-31.52c0,6.92,4.42,12.62,11.9,12.62,7,0,9.81-4.34,10.53-6.83Zm-22.43-12.06h23.08c0-6.35-4.5-10.94-11.34-10.94s-11.74,4.58-11.74,10.94Z"/><path class="cls-1" d="M336.61,67.88v28.38h-8.52v-25.97c0-5.55-2.33-9.09-8.12-9.09-6.51,0-10.69,3.94-10.69,10.05v25.01h-8.44V55.18h8.44v5.31h.16c2.17-3.22,6.43-6.43,13.51-6.43,7.64,0,13.67,4.42,13.67,13.83Z"/><path class="cls-1" d="M367,38.78v57.49h-9.57V38.78h9.57Z"/><path class="cls-1" d="M376.15,38.78h10.69l25.89,43.18h.16V38.78h9.57v57.49h-10.61l-25.97-43.02h-.16v43.02h-9.57V38.78Z"/><path class="cls-1" d="M436.66,38.78l14.63,47.04h.08l14.63-47.04h10.13l-19.62,57.49h-10.37l-19.62-57.49h10.13Z"/></g><path class="cls-1" d="M482.86,47.5c0-4.98,3.33-8.7,8.58-8.7s8.56,3.72,8.56,8.7-3.3,8.68-8.56,8.68-8.58-3.7-8.58-8.68Zm15.91,0c0-4.28-2.79-7.7-7.33-7.7s-7.35,3.42-7.35,7.7,2.79,7.68,7.35,7.68,7.33-3.42,7.33-7.68Zm-7.3-3.4c-2.07,0-2.7,1.54-2.7,3.4s.63,3.37,2.7,3.37c1.86,0,2.33-1.28,2.42-2h2.07c-.14,2.14-1.72,3.84-4.37,3.84-3.12,0-4.91-2.14-4.91-5.21s1.7-5.23,4.72-5.23c2.7,0,4.33,1.7,4.56,3.81h-2.07c-.09-.63-.56-1.98-2.42-1.98Z"/></svg>